  0
SECTION
  2
BLOCKS
  0
ENDSEC
  0
SECTION
  2
ENTITIES
  0
LINE
  8
0
 10
569
 20
498
 11
565
 21
498
  0
LINE
  8
0
 10
565
 20
498
 11
565
 21
499
  0
LINE
  8
0
 10
565
 20
499
 11
564
 21
499
  0
LINE
  8
0
 10
564
 20
499
 11
564
 21
498
  0
LINE
  8
0
 10
564
 20
498
 11
562.5
 21
498
  0
LINE
  8
0
 10
562.5
 20
498
 11
562.5
 21
499
  0
LINE
  8
0
 10
562.5
 20
499
 11
560
 21
499
  0
LINE
  8
0
 10
560
 20
499
 11
560
 21
501
  0
LINE
  8
0
 10
560
 20
501
 11
562.5
 21
501
  0
LINE
  8
0
 10
562.5
 20
501
 11
562.5
 21
502
  0
LINE
  8
0
 10
562.5
 20
502
 11
564
 21
502
  0
LINE
  8
0
 10
564
 20
502
 11
564
 21
501
  0
LINE
  8
0
 10
564
 20
501
 11
565
 21
501
  0
LINE
  8
0
 10
565
 20
501
 11
565
 21
502
  0
LINE
  8
0
 10
565
 20
502
 11
569
 21
502
  0
LINE
  8
0
 10
569
 20
502
 11
569
 21
505
  0
LINE
  8
0
 10
569
 20
505
 11
496
 21
505
  0
LINE
  8
0
 10
496
 20
505
 11
496
 21
502
  0
LINE
  8
0
 10
496
 20
502
 11
500
 21
502
  0
LINE
  8
0
 10
500
 20
502
 11
500
 21
501
  0
LINE
  8
0
 10
500
 20
501
 11
501
 21
501
  0
LINE
  8
0
 10
501
 20
501
 11
501
 21
502
  0
LINE
  8
0
 10
501
 20
502
 11
502.5
 21
502
  0
LINE
  8
0
 10
502.5
 20
502
 11
502.5
 21
501
  0
LINE
  8
0
 10
502.5
 20
501
 11
505
 21
501
  0
LINE
  8
0
 10
505
 20
501
 11
505
 21
499
  0
LINE
  8
0
 10
505
 20
499
 11
502.5
 21
499
  0
LINE
  8
0
 10
502.5
 20
499
 11
502.5
 21
498
  0
LINE
  8
0
 10
502.5
 20
498
 11
501
 21
498
  0
LINE
  8
0
 10
501
 20
498
 11
501
 21
499
  0
LINE
  8
0
 10
501
 20
499
 11
500
 21
499
  0
LINE
  8
0
 10
500
 20
499
 11
500
 21
498
  0
LINE
  8
0
 10
500
 20
498
 11
496
 21
498
  0
LINE
  8
0
 10
496
 20
498
 11
496
 21
495
  0
LINE
  8
0
 10
496
 20
495
 11
569
 21
495
  0
LINE
  8
0
 10
569
 20
495
 11
569
 21
498
  0
LINE
  8
0
 10
365
 20
306.25
 11
369
 21
306.25
  0
LINE
  8
0
 10
369
 20
306.25
 11
369
 21
323.75
  0
LINE
  8
0
 10
369
 20
323.75
 11
365
 21
323.75
  0
LINE
  8
0
 10
365
 20
323.75
 11
365
 21
341.25
  0
LINE
  8
0
 10
365
 20
341.25
 11
369
 21
341.25
  0
LINE
  8
0
 10
369
 20
341.25
 11
369
 21
358.75
  0
LINE
  8
0
 10
369
 20
358.75
 11
365
 21
358.75
  0
LINE
  8
0
 10
365
 20
358.75
 11
365
 21
376.25
  0
LINE
  8
0
 10
365
 20
376.25
 11
369
 21
376.25
  0
LINE
  8
0
 10
369
 20
376.25
 11
369
 21
393.75
  0
LINE
  8
0
 10
369
 20
393.75
 11
365
 21
393.75
  0
LINE
  8
0
 10
365
 20
393.75
 11
365
 21
400
  0
LINE
  8
0
 10
365
 20
400
 11
300
 21
400
  0
LINE
  8
0
 10
300
 20
400
 11
300
 21
393.75
  0
LINE
  8
0
 10
300
 20
393.75
 11
296
 21
393.75
  0
LINE
  8
0
 10
296
 20
393.75
 11
296
 21
376.25
  0
LINE
  8
0
 10
296
 20
376.25
 11
300
 21
376.25
  0
LINE
  8
0
 10
300
 20
376.25
 11
300
 21
358.75
  0
LINE
  8
0
 10
300
 20
358.75
 11
296
 21
358.75
  0
LINE
  8
0
 10
296
 20
358.75
 11
296
 21
341.25
  0
LINE
  8
0
 10
296
 20
341.25
 11
300
 21
341.25
  0
LINE
  8
0
 10
300
 20
341.25
 11
300
 21
323.75
  0
LINE
  8
0
 10
300
 20
323.75
 11
296
 21
323.75
  0
LINE
  8
0
 10
296
 20
323.75
 11
296
 21
306.25
  0
LINE
  8
0
 10
296
 20
306.25
 11
300
 21
306.25
  0
LINE
  8
0
 10
300
 20
306.25
 11
300
 21
300
  0
LINE
  8
0
 10
300
 20
300
 11
365
 21
300
  0
LINE
  8
0
 10
365
 20
300
 11
365
 21
306.25
  0
LINE
  8
0
 10
104.5
 20
220
 11
41.5
 21
220
  0
LINE
  8
0
 10
41.5
 20
220
 11
41.5
 21
120
  0
LINE
  8
0
 10
41.5
 20
120
 11
104.5
 21
120
  0
LINE
  8
0
 10
104.5
 20
120
 11
104.5
 21
220
  0
LINE
  8
0
 10
45
 20
196.25
 11
45
 21
213.75
  0
LINE
  8
0
 10
45
 20
213.75
 11
49
 21
213.75
  0
LINE
  8
0
 10
49
 20
213.75
 11
49
 21
196.25
  0
LINE
  8
0
 10
49
 20
196.25
 11
45
 21
196.25
  0
LINE
  8
0
 10
73
 20
196.25
 11
73
 21
213.75
  0
LINE
  8
0
 10
73
 20
213.75
 11
77
 21
213.75
  0
LINE
  8
0
 10
77
 20
213.75
 11
77
 21
196.25
  0
LINE
  8
0
 10
77
 20
196.25
 11
73
 21
196.25
  0
LINE
  8
0
 10
98
 20
196.25
 11
98
 21
213.75
  0
LINE
  8
0
 10
98
 20
213.75
 11
102
 21
213.75
  0
LINE
  8
0
 10
102
 20
213.75
 11
102
 21
196.25
  0
LINE
  8
0
 10
102
 20
196.25
 11
98
 21
196.25
  0
LINE
  8
0
 10
62
 20
186
 11
62
 21
190
  0
LINE
  8
0
 10
62
 20
190
 11
65
 21
190
  0
LINE
  8
0
 10
65
 20
190
 11
65
 21
186
  0
LINE
  8
0
 10
65
 20
186
 11
62
 21
186
  0
LINE
  8
0
 10
55
 20
186
 11
55
 21
190
  0
LINE
  8
0
 10
55
 20
190
 11
58
 21
190
  0
LINE
  8
0
 10
58
 20
190
 11
58
 21
186
  0
LINE
  8
0
 10
58
 20
186
 11
55
 21
186
  0
LINE
  8
0
 10
59.8432
 20
186.508
 11
59.5365
 21
186.573
  0
LINE
  8
0
 10
59.5365
 20
186.573
 11
59.25
 21
186.701
  0
LINE
  8
0
 10
59.25
 20
186.701
 11
58.9963
 21
186.885
  0
LINE
  8
0
 10
58.9963
 20
186.885
 11
58.7865
 21
187.118
  0
LINE
  8
0
 10
58.7865
 20
187.118
 11
58.6297
 21
187.39
  0
LINE
  8
0
 10
58.6297
 20
187.39
 11
58.5328
 21
187.688
  0
LINE
  8
0
 10
58.5328
 20
187.688
 11
58.5
 21
188
  0
LINE
  8
0
 10
58.5
 20
188
 11
58.5328
 21
188.312
  0
LINE
  8
0
 10
58.5328
 20
188.312
 11
58.6297
 21
188.61
  0
LINE
  8
0
 10
58.6297
 20
188.61
 11
58.7865
 21
188.882
  0
LINE
  8
0
 10
58.7865
 20
188.882
 11
58.9963
 21
189.115
  0
LINE
  8
0
 10
58.9963
 20
189.115
 11
59.25
 21
189.299
  0
LINE
  8
0
 10
59.25
 20
189.299
 11
59.5365
 21
189.427
  0
LINE
  8
0
 10
59.5365
 20
189.427
 11
59.8432
 21
189.492
  0
LINE
  8
0
 10
59.8432
 20
189.492
 11
60.1568
 21
189.492
  0
LINE
  8
0
 10
60.1568
 20
189.492
 11
60.4635
 21
189.427
  0
LINE
  8
0
 10
60.4635
 20
189.427
 11
60.75
 21
189.299
  0
LINE
  8
0
 10
60.75
 20
189.299
 11
61.0037
 21
189.115
  0
LINE
  8
0
 10
61.0037
 20
189.115
 11
61.2135
 21
188.882
  0
LINE
  8
0
 10
61.2135
 20
188.882
 11
61.3703
 21
188.61
  0
LINE
  8
0
 10
61.3703
 20
188.61
 11
61.4672
 21
188.312
  0
LINE
  8
0
 10
61.4672
 20
188.312
 11
61.5
 21
188
  0
LINE
  8
0
 10
61.5
 20
188
 11
61.4672
 21
187.688
  0
LINE
  8
0
 10
61.4672
 20
187.688
 11
61.3703
 21
187.39
  0
LINE
  8
0
 10
61.3703
 20
187.39
 11
61.2135
 21
187.118
  0
LINE
  8
0
 10
61.2135
 20
187.118
 11
61.0037
 21
186.885
  0
LINE
  8
0
 10
61.0037
 20
186.885
 11
60.75
 21
186.701
  0
LINE
  8
0
 10
60.75
 20
186.701
 11
60.4635
 21
186.573
  0
LINE
  8
0
 10
60.4635
 20
186.573
 11
60.1568
 21
186.508
  0
LINE
  8
0
 10
60.1568
 20
186.508
 11
59.8432
 21
186.508
  0
LINE
  8
0
 10
73
 20
161.25
 11
73
 21
178.75
  0
LINE
  8
0
 10
73
 20
178.75
 11
77
 21
178.75
  0
LINE
  8
0
 10
77
 20
178.75
 11
77
 21
161.25
  0
LINE
  8
0
 10
77
 20
161.25
 11
73
 21
161.25
  0
LINE
  8
0
 10
45
 20
161.25
 11
45
 21
178.75
  0
LINE
  8
0
 10
45
 20
178.75
 11
49
 21
178.75
  0
LINE
  8
0
 10
49
 20
178.75
 11
49
 21
161.25
  0
LINE
  8
0
 10
49
 20
161.25
 11
45
 21
161.25
  0
LINE
  8
0
 10
98
 20
161.25
 11
98
 21
178.75
  0
LINE
  8
0
 10
98
 20
178.75
 11
102
 21
178.75
  0
LINE
  8
0
 10
102
 20
178.75
 11
102
 21
161.25
  0
LINE
  8
0
 10
102
 20
161.25
 11
98
 21
161.25
  0
LINE
  8
0
 10
62
 20
151
 11
62
 21
155
  0
LINE
  8
0
 10
62
 20
155
 11
65
 21
155
  0
LINE
  8
0
 10
65
 20
155
 11
65
 21
151
  0
LINE
  8
0
 10
65
 20
151
 11
62
 21
151
  0
LINE
  8
0
 10
55
 20
151
 11
55
 21
155
  0
LINE
  8
0
 10
55
 20
155
 11
58
 21
155
  0
LINE
  8
0
 10
58
 20
155
 11
58
 21
151
  0
LINE
  8
0
 10
58
 20
151
 11
55
 21
151
  0
LINE
  8
0
 10
59.8432
 20
151.508
 11
59.5365
 21
151.573
  0
LINE
  8
0
 10
59.5365
 20
151.573
 11
59.25
 21
151.701
  0
LINE
  8
0
 10
59.25
 20
151.701
 11
58.9963
 21
151.885
  0
LINE
  8
0
 10
58.9963
 20
151.885
 11
58.7865
 21
152.118
  0
LINE
  8
0
 10
58.7865
 20
152.118
 11
58.6297
 21
152.39
  0
LINE
  8
0
 10
58.6297
 20
152.39
 11
58.5328
 21
152.688
  0
LINE
  8
0
 10
58.5328
 20
152.688
 11
58.5
 21
153
  0
LINE
  8
0
 10
58.5
 20
153
 11
58.5328
 21
153.312
  0
LINE
  8
0
 10
58.5328
 20
153.312
 11
58.6297
 21
153.61
  0
LINE
  8
0
 10
58.6297
 20
153.61
 11
58.7865
 21
153.882
  0
LINE
  8
0
 10
58.7865
 20
153.882
 11
58.9963
 21
154.115
  0
LINE
  8
0
 10
58.9963
 20
154.115
 11
59.25
 21
154.299
  0
LINE
  8
0
 10
59.25
 20
154.299
 11
59.5365
 21
154.427
  0
LINE
  8
0
 10
59.5365
 20
154.427
 11
59.8432
 21
154.492
  0
LINE
  8
0
 10
59.8432
 20
154.492
 11
60.1568
 21
154.492
  0
LINE
  8
0
 10
60.1568
 20
154.492
 11
60.4635
 21
154.427
  0
LINE
  8
0
 10
60.4635
 20
154.427
 11
60.75
 21
154.299
  0
LINE
  8
0
 10
60.75
 20
154.299
 11
61.0037
 21
154.115
  0
LINE
  8
0
 10
61.0037
 20
154.115
 11
61.2135
 21
153.882
  0
LINE
  8
0
 10
61.2135
 20
153.882
 11
61.3703
 21
153.61
  0
LINE
  8
0
 10
61.3703
 20
153.61
 11
61.4672
 21
153.312
  0
LINE
  8
0
 10
61.4672
 20
153.312
 11
61.5
 21
153
  0
LINE
  8
0
 10
61.5
 20
153
 11
61.4672
 21
152.688
  0
LINE
  8
0
 10
61.4672
 20
152.688
 11
61.3703
 21
152.39
  0
LINE
  8
0
 10
61.3703
 20
152.39
 11
61.2135
 21
152.118
  0
LINE
  8
0
 10
61.2135
 20
152.118
 11
61.0037
 21
151.885
  0
LINE
  8
0
 10
61.0037
 20
151.885
 11
60.75
 21
151.701
  0
LINE
  8
0
 10
60.75
 20
151.701
 11
60.4635
 21
151.573
  0
LINE
  8
0
 10
60.4635
 20
151.573
 11
60.1568
 21
151.508
  0
LINE
  8
0
 10
60.1568
 20
151.508
 11
59.8432
 21
151.508
  0
LINE
  8
0
 10
98
 20
126.25
 11
98
 21
143.75
  0
LINE
  8
0
 10
98
 20
143.75
 11
102
 21
143.75
  0
LINE
  8
0
 10
102
 20
143.75
 11
102
 21
126.25
  0
LINE
  8
0
 10
102
 20
126.25
 11
98
 21
126.25
  0
LINE
  8
0
 10
45
 20
126.25
 11
45
 21
143.75
  0
LINE
  8
0
 10
45
 20
143.75
 11
49
 21
143.75
  0
LINE
  8
0
 10
49
 20
143.75
 11
49
 21
126.25
  0
LINE
  8
0
 10
49
 20
126.25
 11
45
 21
126.25
  0
LINE
  8
0
 10
73
 20
126.25
 11
73
 21
143.75
  0
LINE
  8
0
 10
73
 20
143.75
 11
77
 21
143.75
  0
LINE
  8
0
 10
77
 20
143.75
 11
77
 21
126.25
  0
LINE
  8
0
 10
77
 20
126.25
 11
73
 21
126.25
  0
LINE
  8
0
 10
65
 20
6.25
 11
69
 21
6.25
  0
LINE
  8
0
 10
69
 20
6.25
 11
69
 21
23.75
  0
LINE
  8
0
 10
69
 20
23.75
 11
65
 21
23.75
  0
LINE
  8
0
 10
65
 20
23.75
 11
65
 21
41.25
  0
LINE
  8
0
 10
65
 20
41.25
 11
69
 21
41.25
  0
LINE
  8
0
 10
69
 20
41.25
 11
69
 21
58.75
  0
LINE
  8
0
 10
69
 20
58.75
 11
65
 21
58.75
  0
LINE
  8
0
 10
65
 20
58.75
 11
65
 21
76.25
  0
LINE
  8
0
 10
65
 20
76.25
 11
69
 21
76.25
  0
LINE
  8
0
 10
69
 20
76.25
 11
69
 21
93.75
  0
LINE
  8
0
 10
69
 20
93.75
 11
65
 21
93.75
  0
LINE
  8
0
 10
65
 20
93.75
 11
65
 21
100
  0
LINE
  8
0
 10
65
 20
100
 11
0
 21
100
  0
LINE
  8
0
 10
0
 20
100
 11
0
 21
93.75
  0
LINE
  8
0
 10
0
 20
93.75
 11
-4
 21
93.75
  0
LINE
  8
0
 10
-4
 20
93.75
 11
-4
 21
76.25
  0
LINE
  8
0
 10
-4
 20
76.25
 11
0
 21
76.25
  0
LINE
  8
0
 10
0
 20
76.25
 11
0
 21
58.75
  0
LINE
  8
0
 10
0
 20
58.75
 11
-4
 21
58.75
  0
LINE
  8
0
 10
-4
 20
58.75
 11
-4
 21
41.25
  0
LINE
  8
0
 10
-4
 20
41.25
 11
0
 21
41.25
  0
LINE
  8
0
 10
0
 20
41.25
 11
0
 21
23.75
  0
LINE
  8
0
 10
0
 20
23.75
 11
-4
 21
23.75
  0
LINE
  8
0
 10
-4
 20
23.75
 11
-4
 21
6.25
  0
LINE
  8
0
 10
-4
 20
6.25
 11
0
 21
6.25
  0
LINE
  8
0
 10
0
 20
6.25
 11
0
 21
0
  0
LINE
  8
0
 10
0
 20
0
 11
65
 21
0
  0
LINE
  8
0
 10
65
 20
0
 11
65
 21
6.25
  0
LINE
  8
0
 10
49.216
 20
77.5411
 11
47.6824
 21
77.8671
  0
LINE
  8
0
 10
47.6824
 20
77.8671
 11
46.25
 21
78.5048
  0
LINE
  8
0
 10
46.25
 20
78.5048
 11
44.9815
 21
79.4264
  0
LINE
  8
0
 10
44.9815
 20
79.4264
 11
43.9324
 21
80.5916
  0
LINE
  8
0
 10
43.9324
 20
80.5916
 11
43.1484
 21
81.9495
  0
LINE
  8
0
 10
43.1484
 20
81.9495
 11
42.6639
 21
83.4407
  0
LINE
  8
0
 10
42.6639
 20
83.4407
 11
42.5
 21
85
  0
LINE
  8
0
 10
42.5
 20
85
 11
42.6639
 21
86.5593
  0
LINE
  8
0
 10
42.6639
 20
86.5593
 11
43.1484
 21
88.0505
  0
LINE
  8
0
 10
43.1484
 20
88.0505
 11
43.9324
 21
89.4084
  0
LINE
  8
0
 10
43.9324
 20
89.4084
 11
44.9815
 21
90.5736
  0
LINE
  8
0
 10
44.9815
 20
90.5736
 11
46.25
 21
91.4952
  0
LINE
  8
0
 10
46.25
 20
91.4952
 11
47.6824
 21
92.1329
  0
LINE
  8
0
 10
47.6824
 20
92.1329
 11
49.216
 21
92.4589
  0
LINE
  8
0
 10
49.216
 20
92.4589
 11
50.784
 21
92.4589
  0
LINE
  8
0
 10
50.784
 20
92.4589
 11
52.3176
 21
92.1329
  0
LINE
  8
0
 10
52.3176
 20
92.1329
 11
53.75
 21
91.4952
  0
LINE
  8
0
 10
53.75
 20
91.4952
 11
55.0185
 21
90.5736
  0
LINE
  8
0
 10
55.0185
 20
90.5736
 11
56.0676
 21
89.4084
  0
LINE
  8
0
 10
56.0676
 20
89.4084
 11
56.8516
 21
88.0505
  0
LINE
  8
0
 10
56.8516
 20
88.0505
 11
57.3361
 21
86.5593
  0
LINE
  8
0
 10
57.3361
 20
86.5593
 11
57.5
 21
85
  0
LINE
  8
0
 10
57.5
 20
85
 11
57.3361
 21
83.4407
  0
LINE
  8
0
 10
57.3361
 20
83.4407
 11
56.8516
 21
81.9495
  0
LINE
  8
0
 10
56.8516
 20
81.9495
 11
56.0676
 21
80.5916
  0
LINE
  8
0
 10
56.0676
 20
80.5916
 11
55.0185
 21
79.4264
  0
LINE
  8
0
 10
55.0185
 20
79.4264
 11
53.75
 21
78.5048
  0
LINE
  8
0
 10
53.75
 20
78.5048
 11
52.3176
 21
77.8671
  0
LINE
  8
0
 10
52.3176
 20
77.8671
 11
50.784
 21
77.5411
  0
LINE
  8
0
 10
50.784
 20
77.5411
 11
49.216
 21
77.5411
  0
LINE
  8
0
 10
14.216
 20
77.5411
 11
12.6824
 21
77.8671
  0
LINE
  8
0
 10
12.6824
 20
77.8671
 11
11.25
 21
78.5048
  0
LINE
  8
0
 10
11.25
 20
78.5048
 11
9.98151
 21
79.4264
  0
LINE
  8
0
 10
9.98151
 20
79.4264
 11
8.93237
 21
80.5916
  0
LINE
  8
0
 10
8.93237
 20
80.5916
 11
8.14841
 21
81.9495
  0
LINE
  8
0
 10
8.14841
 20
81.9495
 11
7.66388
 21
83.4407
  0
LINE
  8
0
 10
7.66388
 20
83.4407
 11
7.5
 21
85
  0
LINE
  8
0
 10
7.5
 20
85
 11
7.66388
 21
86.5593
  0
LINE
  8
0
 10
7.66388
 20
86.5593
 11
8.14841
 21
88.0505
  0
LINE
  8
0
 10
8.14841
 20
88.0505
 11
8.93237
 21
89.4084
  0
LINE
  8
0
 10
8.93237
 20
89.4084
 11
9.98151
 21
90.5736
  0
LINE
  8
0
 10
9.98151
 20
90.5736
 11
11.25
 21
91.4952
  0
LINE
  8
0
 10
11.25
 20
91.4952
 11
12.6824
 21
92.1329
  0
LINE
  8
0
 10
12.6824
 20
92.1329
 11
14.216
 21
92.4589
  0
LINE
  8
0
 10
14.216
 20
92.4589
 11
15.784
 21
92.4589
  0
LINE
  8
0
 10
15.784
 20
92.4589
 11
17.3176
 21
92.1329
  0
LINE
  8
0
 10
17.3176
 20
92.1329
 11
18.75
 21
91.4952
  0
LINE
  8
0
 10
18.75
 20
91.4952
 11
20.0185
 21
90.5736
  0
LINE
  8
0
 10
20.0185
 20
90.5736
 11
21.0676
 21
89.4084
  0
LINE
  8
0
 10
21.0676
 20
89.4084
 11
21.8516
 21
88.0505
  0
LINE
  8
0
 10
21.8516
 20
88.0505
 11
22.3361
 21
86.5593
  0
LINE
  8
0
 10
22.3361
 20
86.5593
 11
22.5
 21
85
  0
LINE
  8
0
 10
22.5
 20
85
 11
22.3361
 21
83.4407
  0
LINE
  8
0
 10
22.3361
 20
83.4407
 11
21.8516
 21
81.9495
  0
LINE
  8
0
 10
21.8516
 20
81.9495
 11
21.0676
 21
80.5916
  0
LINE
  8
0
 10
21.0676
 20
80.5916
 11
20.0185
 21
79.4264
  0
LINE
  8
0
 10
20.0185
 20
79.4264
 11
18.75
 21
78.5048
  0
LINE
  8
0
 10
18.75
 20
78.5048
 11
17.3176
 21
77.8671
  0
LINE
  8
0
 10
17.3176
 20
77.8671
 11
15.784
 21
77.5411
  0
LINE
  8
0
 10
15.784
 20
77.5411
 11
14.216
 21
77.5411
  0
LINE
  8
0
 10
49.216
 20
42.5411
 11
47.6824
 21
42.8671
  0
LINE
  8
0
 10
47.6824
 20
42.8671
 11
46.25
 21
43.5048
  0
LINE
  8
0
 10
46.25
 20
43.5048
 11
44.9815
 21
44.4264
  0
LINE
  8
0
 10
44.9815
 20
44.4264
 11
43.9324
 21
45.5916
  0
LINE
  8
0
 10
43.9324
 20
45.5916
 11
43.1484
 21
46.9495
  0
LINE
  8
0
 10
43.1484
 20
46.9495
 11
42.6639
 21
48.4407
  0
LINE
  8
0
 10
42.6639
 20
48.4407
 11
42.5
 21
50
  0
LINE
  8
0
 10
42.5
 20
50
 11
42.6639
 21
51.5593
  0
LINE
  8
0
 10
42.6639
 20
51.5593
 11
43.1484
 21
53.0505
  0
LINE
  8
0
 10
43.1484
 20
53.0505
 11
43.9324
 21
54.4084
  0
LINE
  8
0
 10
43.9324
 20
54.4084
 11
44.9815
 21
55.5736
  0
LINE
  8
0
 10
44.9815
 20
55.5736
 11
46.25
 21
56.4952
  0
LINE
  8
0
 10
46.25
 20
56.4952
 11
47.6824
 21
57.1329
  0
LINE
  8
0
 10
47.6824
 20
57.1329
 11
49.216
 21
57.4589
  0
LINE
  8
0
 10
49.216
 20
57.4589
 11
50.784
 21
57.4589
  0
LINE
  8
0
 10
50.784
 20
57.4589
 11
52.3176
 21
57.1329
  0
LINE
  8
0
 10
52.3176
 20
57.1329
 11
53.75
 21
56.4952
  0
LINE
  8
0
 10
53.75
 20
56.4952
 11
55.0185
 21
55.5736
  0
LINE
  8
0
 10
55.0185
 20
55.5736
 11
56.0676
 21
54.4084
  0
LINE
  8
0
 10
56.0676
 20
54.4084
 11
56.8516
 21
53.0505
  0
LINE
  8
0
 10
56.8516
 20
53.0505
 11
57.3361
 21
51.5593
  0
LINE
  8
0
 10
57.3361
 20
51.5593
 11
57.5
 21
50
  0
LINE
  8
0
 10
57.5
 20
50
 11
57.3361
 21
48.4407
  0
LINE
  8
0
 10
57.3361
 20
48.4407
 11
56.8516
 21
46.9495
  0
LINE
  8
0
 10
56.8516
 20
46.9495
 11
56.0676
 21
45.5916
  0
LINE
  8
0
 10
56.0676
 20
45.5916
 11
55.0185
 21
44.4264
  0
LINE
  8
0
 10
55.0185
 20
44.4264
 11
53.75
 21
43.5048
  0
LINE
  8
0
 10
53.75
 20
43.5048
 11
52.3176
 21
42.8671
  0
LINE
  8
0
 10
52.3176
 20
42.8671
 11
50.784
 21
42.5411
  0
LINE
  8
0
 10
50.784
 20
42.5411
 11
49.216
 21
42.5411
  0
LINE
  8
0
 10
14.216
 20
42.5411
 11
12.6824
 21
42.8671
  0
LINE
  8
0
 10
12.6824
 20
42.8671
 11
11.25
 21
43.5048
  0
LINE
  8
0
 10
11.25
 20
43.5048
 11
9.98151
 21
44.4264
  0
LINE
  8
0
 10
9.98151
 20
44.4264
 11
8.93237
 21
45.5916
  0
LINE
  8
0
 10
8.93237
 20
45.5916
 11
8.14841
 21
46.9495
  0
LINE
  8
0
 10
8.14841
 20
46.9495
 11
7.66388
 21
48.4407
  0
LINE
  8
0
 10
7.66388
 20
48.4407
 11
7.5
 21
50
  0
LINE
  8
0
 10
7.5
 20
50
 11
7.66388
 21
51.5593
  0
LINE
  8
0
 10
7.66388
 20
51.5593
 11
8.14841
 21
53.0505
  0
LINE
  8
0
 10
8.14841
 20
53.0505
 11
8.93237
 21
54.4084
  0
LINE
  8
0
 10
8.93237
 20
54.4084
 11
9.98151
 21
55.5736
  0
LINE
  8
0
 10
9.98151
 20
55.5736
 11
11.25
 21
56.4952
  0
LINE
  8
0
 10
11.25
 20
56.4952
 11
12.6824
 21
57.1329
  0
LINE
  8
0
 10
12.6824
 20
57.1329
 11
14.216
 21
57.4589
  0
LINE
  8
0
 10
14.216
 20
57.4589
 11
15.784
 21
57.4589
  0
LINE
  8
0
 10
15.784
 20
57.4589
 11
17.3176
 21
57.1329
  0
LINE
  8
0
 10
17.3176
 20
57.1329
 11
18.75
 21
56.4952
  0
LINE
  8
0
 10
18.75
 20
56.4952
 11
20.0185
 21
55.5736
  0
LINE
  8
0
 10
20.0185
 20
55.5736
 11
21.0676
 21
54.4084
  0
LINE
  8
0
 10
21.0676
 20
54.4084
 11
21.8516
 21
53.0505
  0
LINE
  8
0
 10
21.8516
 20
53.0505
 11
22.3361
 21
51.5593
  0
LINE
  8
0
 10
22.3361
 20
51.5593
 11
22.5
 21
50
  0
LINE
  8
0
 10
22.5
 20
50
 11
22.3361
 21
48.4407
  0
LINE
  8
0
 10
22.3361
 20
48.4407
 11
21.8516
 21
46.9495
  0
LINE
  8
0
 10
21.8516
 20
46.9495
 11
21.0676
 21
45.5916
  0
LINE
  8
0
 10
21.0676
 20
45.5916
 11
20.0185
 21
44.4264
  0
LINE
  8
0
 10
20.0185
 20
44.4264
 11
18.75
 21
43.5048
  0
LINE
  8
0
 10
18.75
 20
43.5048
 11
17.3176
 21
42.8671
  0
LINE
  8
0
 10
17.3176
 20
42.8671
 11
15.784
 21
42.5411
  0
LINE
  8
0
 10
15.784
 20
42.5411
 11
14.216
 21
42.5411
  0
LINE
  8
0
 10
14.216
 20
7.54108
 11
12.6824
 21
7.86707
  0
LINE
  8
0
 10
12.6824
 20
7.86707
 11
11.25
 21
8.50481
  0
LINE
  8
0
 10
11.25
 20
8.50481
 11
9.98151
 21
9.42641
  0
LINE
  8
0
 10
9.98151
 20
9.42641
 11
8.93237
 21
10.5916
  0
LINE
  8
0
 10
8.93237
 20
10.5916
 11
8.14841
 21
11.9495
  0
LINE
  8
0
 10
8.14841
 20
11.9495
 11
7.66388
 21
13.4407
  0
LINE
  8
0
 10
7.66388
 20
13.4407
 11
7.5
 21
15
  0
LINE
  8
0
 10
7.5
 20
15
 11
7.66388
 21
16.5593
  0
LINE
  8
0
 10
7.66388
 20
16.5593
 11
8.14841
 21
18.0505
  0
LINE
  8
0
 10
8.14841
 20
18.0505
 11
8.93237
 21
19.4084
  0
LINE
  8
0
 10
8.93237
 20
19.4084
 11
9.98151
 21
20.5736
  0
LINE
  8
0
 10
9.98151
 20
20.5736
 11
11.25
 21
21.4952
  0
LINE
  8
0
 10
11.25
 20
21.4952
 11
12.6824
 21
22.1329
  0
LINE
  8
0
 10
12.6824
 20
22.1329
 11
14.216
 21
22.4589
  0
LINE
  8
0
 10
14.216
 20
22.4589
 11
15.784
 21
22.4589
  0
LINE
  8
0
 10
15.784
 20
22.4589
 11
17.3176
 21
22.1329
  0
LINE
  8
0
 10
17.3176
 20
22.1329
 11
18.75
 21
21.4952
  0
LINE
  8
0
 10
18.75
 20
21.4952
 11
20.0185
 21
20.5736
  0
LINE
  8
0
 10
20.0185
 20
20.5736
 11
21.0676
 21
19.4084
  0
LINE
  8
0
 10
21.0676
 20
19.4084
 11
21.8516
 21
18.0505
  0
LINE
  8
0
 10
21.8516
 20
18.0505
 11
22.3361
 21
16.5593
  0
LINE
  8
0
 10
22.3361
 20
16.5593
 11
22.5
 21
15
  0
LINE
  8
0
 10
22.5
 20
15
 11
22.3361
 21
13.4407
  0
LINE
  8
0
 10
22.3361
 20
13.4407
 11
21.8516
 21
11.9495
  0
LINE
  8
0
 10
21.8516
 20
11.9495
 11
21.0676
 21
10.5916
  0
LINE
  8
0
 10
21.0676
 20
10.5916
 11
20.0185
 21
9.42641
  0
LINE
  8
0
 10
20.0185
 20
9.42641
 11
18.75
 21
8.50481
  0
LINE
  8
0
 10
18.75
 20
8.50481
 11
17.3176
 21
7.86707
  0
LINE
  8
0
 10
17.3176
 20
7.86707
 11
15.784
 21
7.54108
  0
LINE
  8
0
 10
15.784
 20
7.54108
 11
14.216
 21
7.54108
  0
LINE
  8
0
 10
49.216
 20
7.54108
 11
47.6824
 21
7.86707
  0
LINE
  8
0
 10
47.6824
 20
7.86707
 11
46.25
 21
8.50481
  0
LINE
  8
0
 10
46.25
 20
8.50481
 11
44.9815
 21
9.42641
  0
LINE
  8
0
 10
44.9815
 20
9.42641
 11
43.9324
 21
10.5916
  0
LINE
  8
0
 10
43.9324
 20
10.5916
 11
43.1484
 21
11.9495
  0
LINE
  8
0
 10
43.1484
 20
11.9495
 11
42.6639
 21
13.4407
  0
LINE
  8
0
 10
42.6639
 20
13.4407
 11
42.5
 21
15
  0
LINE
  8
0
 10
42.5
 20
15
 11
42.6639
 21
16.5593
  0
LINE
  8
0
 10
42.6639
 20
16.5593
 11
43.1484
 21
18.0505
  0
LINE
  8
0
 10
43.1484
 20
18.0505
 11
43.9324
 21
19.4084
  0
LINE
  8
0
 10
43.9324
 20
19.4084
 11
44.9815
 21
20.5736
  0
LINE
  8
0
 10
44.9815
 20
20.5736
 11
46.25
 21
21.4952
  0
LINE
  8
0
 10
46.25
 20
21.4952
 11
47.6824
 21
22.1329
  0
LINE
  8
0
 10
47.6824
 20
22.1329
 11
49.216
 21
22.4589
  0
LINE
  8
0
 10
49.216
 20
22.4589
 11
50.784
 21
22.4589
  0
LINE
  8
0
 10
50.784
 20
22.4589
 11
52.3176
 21
22.1329
  0
LINE
  8
0
 10
52.3176
 20
22.1329
 11
53.75
 21
21.4952
  0
LINE
  8
0
 10
53.75
 20
21.4952
 11
55.0185
 21
20.5736
  0
LINE
  8
0
 10
55.0185
 20
20.5736
 11
56.0676
 21
19.4084
  0
LINE
  8
0
 10
56.0676
 20
19.4084
 11
56.8516
 21
18.0505
  0
LINE
  8
0
 10
56.8516
 20
18.0505
 11
57.3361
 21
16.5593
  0
LINE
  8
0
 10
57.3361
 20
16.5593
 11
57.5
 21
15
  0
LINE
  8
0
 10
57.5
 20
15
 11
57.3361
 21
13.4407
  0
LINE
  8
0
 10
57.3361
 20
13.4407
 11
56.8516
 21
11.9495
  0
LINE
  8
0
 10
56.8516
 20
11.9495
 11
56.0676
 21
10.5916
  0
LINE
  8
0
 10
56.0676
 20
10.5916
 11
55.0185
 21
9.42641
  0
LINE
  8
0
 10
55.0185
 20
9.42641
 11
53.75
 21
8.50481
  0
LINE
  8
0
 10
53.75
 20
8.50481
 11
52.3176
 21
7.86707
  0
LINE
  8
0
 10
52.3176
 20
7.86707
 11
50.784
 21
7.54108
  0
LINE
  8
0
 10
50.784
 20
7.54108
 11
49.216
 21
7.54108
  0
ENDSEC
  0
SECTION
  2
OBJECTS
  0
DICTIONARY
  0
ENDSEC
  0
EOF
